<svg xmlns="http://www.w3.org/2000/svg" width="64" height="64" data-name="Layer 1" viewBox="0 0 64 64">
 <defs>
  <style id="current-color-scheme" type="text/css">
   .ColorScheme-Text { color:#ccc; }
  </style>
 </defs> 
    <path style="fill:currentColor" class="ColorScheme-Text" d="M51.309 10.31a13 13 0 0 0-2.153.185c-12.167 2.033-11.652 16.203-11.652 16.203s0 6.27 5.848 9.442c4.871 2.803 7.674-.226 8.15-.703.477-.476 10.38-12.868 8.79 10.666 0 0 3.48-3.79 3.702-12.825.22-9.035-5.593-9.595-5.593-9.595s-2.562-.644-7.659 4.86c-4.937 5.333-5.425 5.27-5.45 5.26 0 0-1.44 1.016-1.611-1.537s-.717-10.287 7.061-14.47c7.778-4.184 11.563 6.069 11.563 6.069s-.863-13.538-10.996-13.556m-21.953 5.858a4.134 5.514 77.92 0 0-1.425.16 4.134 5.514 77.92 0 0-4.527 5.198 4.134 5.514 77.92 0 0 6.258 2.889 4.134 5.514 77.92 0 0 4.527-5.197 4.134 5.514 77.92 0 0-4.833-3.05m-25.648 1.75S.222 21.715.006 30.745s5.582 9.564 5.582 9.564 2.564.639 7.66-4.865c4.938-5.332 5.43-5.26 5.455-5.25 0 0 1.44-1.01 1.607 1.537.166 2.549.72 10.312-7.062 14.475S1.69 40.137 1.69 40.137s.982 15.397 13.15 13.37c12.166-2.028 11.65-16.203 11.65-16.203s.016-6.266-5.852-9.442c-4.87-2.804-7.67.225-8.15.707-.482.48-10.37 12.87-8.78-10.65m27.131 7.52a4.22 4.22 0 0 0-4.171 4.54 4.2 4.2 0 0 0 .191.982s2.455 9.761 15.663 10.076c0-.005-7.62-5.441-7.443-11.701a4.22 4.22 0 0 0-4.24-3.896"/>
</svg>
