<svg xmlns="http://www.w3.org/2000/svg" viewBox="0 0 200 154"><defs><style>.cls-1{fill:#069;}.cls-2{fill:#2991c9;}.cls-3{fill:#fff;}.cls-4{fill:#002a44;}.cls-5{fill:#3380cc;}.cls-6{fill:#cc5e55;}</style></defs><g id="Layer_1" data-name="Layer 1"><rect class="cls-1" width="200" height="154" rx="12"/><circle class="cls-2" cx="33.56" cy="15.79" r="5.53"/><circle class="cls-2" cx="51.13" cy="15.79" r="5.53"/><circle class="cls-2" cx="15.99" cy="15.79" r="5.53"/></g><g id="Layer_4" data-name="Layer 4"><rect class="cls-3" x="10.03" y="27.7" width="180.89" height="116"/><path id="path6" class="cls-4" d="M52.55,126.87a12.83,12.83,0,0,1,6.78-3.82c.87,0,1.73-.11,2.56-.15a8.22,8.22,0,0,1,2.88.74A11.93,11.93,0,0,1,68.43,127a15.53,15.53,0,0,1,2.88,6.54,18.09,18.09,0,0,1,.08,2.44,9.91,9.91,0,0,1-1.21-2.16,10.93,10.93,0,0,0-2.09-2.53,6.69,6.69,0,0,0-4.46-1.85,6,6,0,0,0-1.89.24,9.24,9.24,0,0,0-4.49,2.73c-.4.47-.83.9-1.18,1.38S55.28,135,55,135.58a14.45,14.45,0,0,0-1.61,6c.08.83.08,1.62.16,2.45.23.55.11,1.3.71,1.61a2,2,0,0,0,1.18-.3A15.7,15.7,0,0,0,58,143c.95-.78,1.62-1.81,2.52-2.67.51-.4.83-.91,1.34-1.3a18.78,18.78,0,0,1,3-2.45,5.19,5.19,0,0,1,2.8-.75,4.4,4.4,0,0,1,3,1.78,13.47,13.47,0,0,1,2.12,4.73c.2.86.12,1.77.24,2.68a30.48,30.48,0,0,1-1.58,8.82,12.4,12.4,0,0,1-1.37,2.84c-.2.24-.32.55-.61.63a15.59,15.59,0,0,1,.3-1.73,7.81,7.81,0,0,0,.08-1.93,18.78,18.78,0,0,0,0-3c-.23-1-.27-2.05-.6-3a8,8,0,0,0-.79-2.05,3.32,3.32,0,0,0-.79-1.1,2.55,2.55,0,0,0-1.42-.6,5.17,5.17,0,0,0-1.14.35,11,11,0,0,0-2.29,2.12A13.33,13.33,0,0,1,60.82,148a5.09,5.09,0,0,1-3.58,1,11.68,11.68,0,0,1-4.89-1.73,10.62,10.62,0,0,1-1.93-1.54,9.73,9.73,0,0,1-2.61-5.44,4.48,4.48,0,0,1-.11-1.89,16.52,16.52,0,0,1,1.85-7.21,18.94,18.94,0,0,1,2-2.95A2.92,2.92,0,0,1,52.55,126.87Z" transform="translate(0 -23)"/><path id="path3742" class="cls-4" d="M32.45,160.72a12.65,12.65,0,0,1-6.77,3.83c-.87,0-1.74.12-2.57.16a8.41,8.41,0,0,1-2.87-.75,11.88,11.88,0,0,1-3.67-3.35,15.66,15.66,0,0,1-2.88-6.54,18.24,18.24,0,0,1-.08-2.45,9.67,9.67,0,0,1,1.22,2.17,10.6,10.6,0,0,0,2.08,2.52,6.69,6.69,0,0,0,4.46,1.85,6,6,0,0,0,1.89-.23,9.32,9.32,0,0,0,4.49-2.73c.4-.47.83-.91,1.18-1.38.36-.63.79-1.18,1.07-1.81a14.3,14.3,0,0,0,1.61-6c-.07-.83-.07-1.62-.15-2.45-.24-.55-.12-1.3-.72-1.61a2,2,0,0,0-1.18.3A15.7,15.7,0,0,0,27,144.63c-.94.78-1.61,1.81-2.52,2.67-.51.4-.83.91-1.34,1.3a18.78,18.78,0,0,1-3,2.45,5.11,5.11,0,0,1-2.8.75,4.4,4.4,0,0,1-3-1.78,13.47,13.47,0,0,1-2.12-4.73c-.2-.86-.12-1.77-.24-2.68a30.48,30.48,0,0,1,1.58-8.82A12.44,12.44,0,0,1,15,131c.19-.24.3-.55.59-.63a13.26,13.26,0,0,1-.31,1.73,7.81,7.81,0,0,0-.07,1.93,18.78,18.78,0,0,0,0,3c.23,1,.27,2.05.59,3a7.61,7.61,0,0,0,.78,2.05,3.32,3.32,0,0,0,.79,1.1,2.68,2.68,0,0,0,1.42.59,6.27,6.27,0,0,0,1.14-.35,10.54,10.54,0,0,0,2.29-2.13,13.33,13.33,0,0,1,1.93-1.65,5.18,5.18,0,0,1,3.59-1,11.52,11.52,0,0,1,4.88,1.74,9.9,9.9,0,0,1,1.93,1.54,9.64,9.64,0,0,1,2.64,5.45,4.33,4.33,0,0,1,.12,1.89,16.52,16.52,0,0,1-1.85,7.21,19,19,0,0,1-2,3A3.34,3.34,0,0,1,32.45,160.72Z" transform="translate(0 -23)"/><path id="path10" class="cls-4" d="M37.82,129.08a6.53,6.53,0,0,1,5.36.4,4.23,4.23,0,0,1,1.37,1.65,2.92,2.92,0,0,1-.15,2.56,5.81,5.81,0,0,1-4.85,3.08,5.42,5.42,0,0,1-2.73-.36A3.88,3.88,0,0,1,34.5,134a3,3,0,0,1,.39-2.45A5.46,5.46,0,0,1,37.82,129.08Z" transform="translate(0 -23)"/><path id="path12" class="cls-4" d="M38,139.53a4,4,0,0,1,3.51-1.94,5.58,5.58,0,0,1,2.09.55,3.23,3.23,0,0,1,1.93,2.17,17.68,17.68,0,0,0,.35,3.47,13.24,13.24,0,0,0,4,5.95c.87,1,2.05,1.74,2.92,2.76a26.46,26.46,0,0,1-4-.42,13.5,13.5,0,0,1-4.57-1.62A10,10,0,0,1,42,148.92a12.62,12.62,0,0,1-2.8-3.12,10,10,0,0,1-1.61-4.54A5.18,5.18,0,0,1,38,139.53Z" transform="translate(0 -23)"/><polygon class="cls-5" points="61.53 92.52 71.04 76.05 52.02 76.05 61.53 92.52"/><path class="cls-5" d="M64.12,117l9.51-16.48A3,3,0,0,0,71,96.05H52a3,3,0,0,0-2.59,4.51L58.94,117c1.93,3.34,7.11.32,5.18-3L54.61,97.53,52,102.05H71l-2.59-4.52L58.94,114C57,117.36,62.19,120.38,64.12,117Z" transform="translate(0 -23)"/><path class="cls-5" d="M62.82,110.1c-.42-29.51,29.67-51.17,57.42-39.71C147,81.46,154.3,117.25,134,137.92c-13.35,13.6-34.18,16-50.64,6.73-3.37-1.89-6.4,3.29-3,5.18,16.46,9.23,37,8.55,52.3-2.8a48,48,0,0,0,19.24-40C150.49,73.09,114,51.43,83.5,66.08c-16.75,8.06-26.94,25.62-26.68,44,.06,3.86,6.06,3.87,6,0Z" transform="translate(0 -23)"/><circle class="cls-6" cx="104.66" cy="85.36" r="26.95"/><rect class="cls-3" x="102.63" y="69" width="3" height="17" rx="1.5"/><rect class="cls-3" x="107.81" y="104.86" width="3" height="17" rx="1.5" transform="translate(-48.14 87.5) rotate(-45)"/></g></svg>