<svg xmlns="http://www.w3.org/2000/svg" xmlns:xlink="http://www.w3.org/1999/xlink" xml:space="preserve" width="24" height="24" viewBox="0 0 24 24"><defs><linearGradient xlink:href="#b" id="c" x1="22.188" x2="5.319" y1="23.063" y2="5.324" gradientTransform="translate(-.964 -.963)scale(1.08032)" gradientUnits="userSpaceOnUse" spreadMethod="pad"/><linearGradient id="b" x1="22.188" x2="5.319" y1="23.063" y2="5.324" gradientUnits="userSpaceOnUse" spreadMethod="pad"><stop offset="0" style="stop-color:#82bff5;stop-opacity:.90196079"/><stop offset=".954" style="stop-color:#03689b;stop-opacity:.90196079"/><stop offset=".954" style="stop-color:#c0352b;stop-opacity:.90196079"/></linearGradient></defs><path d="M4.137 2.125a2.7 2.7 0 0 0-2.705 2.707v14.34c0 1.5 1.205 2.705 2.705 2.705h15.726c1.5 0 2.705-1.206 2.705-2.705V4.83a2.7 2.7 0 0 0-2.705-2.707z" style="fill:url(#c);stroke:none;stroke-width:1.44042"/><path d="M14.35 4.123q-.124 0-.262.023c-1.482.248-1.42 1.973-1.42 1.973s0 .764.713 1.15c.593.342.934-.027.992-.085s1.264-1.567 1.07 1.298c0 0 .425-.462.452-1.562.026-1.1-.682-1.168-.682-1.168s-.313-.079-.934.592c-.523.565-.637.633-.66.64h-.002s-.176.124-.197-.187-.088-1.252.86-1.762c.946-.51 1.408.738 1.408.738s-.104-1.648-1.338-1.65m-2.674.715a.503.671 77.92 0 0-.174.02.503.671 77.92 0 0-.55.632.503.671 77.92 0 0 .76.352.503.671 77.92 0 0 .552-.633.503.671 77.92 0 0-.588-.371m-3.123.213s-.425.46-.451 1.56.68 1.166.68 1.166.312.077.933-.593c.504-.545.63-.628.658-.64h.006s.175-.122.195.188.088 1.255-.86 1.762c-.947.507-1.407-.738-1.407-.738s.12 1.874 1.601 1.627c1.482-.247 1.42-1.973 1.42-1.973s.002-.761-.713-1.148c-.593-.342-.935.027-.994.086S8.36 7.915 8.553 5.05m3.27.916a.514.514 0 0 0-.473.553.5.5 0 0 0 .023.119s.298 1.188 1.906 1.226c0 0-.927-.663-.906-1.426a.514.514 0 0 0-.55-.472" style="fill:#fff"/><path d="M14.255 15.417a2.59 2.59 0 0 1-2.59 2.589 2.59 2.59 0 0 1-2.588-2.589 2.59 2.59 0 0 1 2.589-2.589 2.59 2.59 0 0 1 2.589 2.589" style="fill:#cc5e55;fill-opacity:1;fill-rule:nonzero;stroke:none;stroke-width:.879096" transform="translate(.35)"/><path d="M11.614 13.844c.08 0 .144.065.144.144v1.346c0 .08-.065.145-.144.145a.145.145 0 0 1-.144-.145v-1.346c0-.079.066-.144.144-.144" style="fill:#fff;fill-opacity:1;fill-rule:nonzero;stroke:none;stroke-width:.879096" transform="translate(.35)"/><path d="M11.536 15.321a.14.14 0 0 1 .202 0l.951.951a.14.14 0 0 1 0 .203.14.14 0 0 1-.202 0l-.951-.952a.144.144 0 0 1 0-.202" style="fill:#fff;fill-opacity:1;fill-rule:nonzero;stroke:none;stroke-width:.879096" transform="translate(.35)"/><path d="M7.566 12.14a5.24 5.24 0 0 0-1.148 3.054.477.477 0 1 0 .955.041 4.285 4.285 0 0 1 7.899-2.119.478.478 0 0 0 .807-.508 5.24 5.24 0 0 0-5.784-2.253 5.25 5.25 0 0 0-2.73 1.786" style="fill:#fafafa;fill-opacity:1;fill-rule:nonzero;stroke:none;stroke-width:.879096" transform="translate(.35)"/><path d="M6.906 16.231a.48.48 0 0 1-.336-.14.47.47 0 0 1 0-.674l1.528-1.531a.476.476 0 1 1 .677.673L7.242 16.09a.48.48 0 0 1-.337.141" style="fill:#fafafa;fill-opacity:1;fill-rule:nonzero;stroke:none;stroke-width:.879096" transform="translate(.35)"/><path d="M7.384 15.754c0 .12-.049.243-.14.336a.47.47 0 0 1-.674 0l-1.532-1.528a.477.477 0 1 1 .673-.676l1.532 1.531c.092.092.14.213.14.337M16.542 13.518a5.3 5.3 0 0 0-2.071-2.52.477.477 0 1 0-.512.807A4.285 4.285 0 0 1 15.8 16.53a4.285 4.285 0 0 1-3.96 3.176.475.475 0 1 0 .042.951 5.25 5.25 0 0 0 4.842-3.88h-.003a5.25 5.25 0 0 0-.179-3.259" style="fill:#fafafa;fill-opacity:1;fill-rule:nonzero;stroke:none;stroke-width:.879096" transform="translate(.35)"/></svg>