<?xml version="1.0" encoding="UTF-8" standalone="no"?>
<svg
   xml:space="preserve"
   width="24"
   height="24"
   viewBox="0 0 24 24"
   version="1.1"
   id="svg6"
   sodipodi:docname="big-welcome.svg"
   inkscape:version="1.4.3 (0d15f75042, 2025-12-25)"
   xmlns:inkscape="http://www.inkscape.org/namespaces/inkscape"
   xmlns:sodipodi="http://sodipodi.sourceforge.net/DTD/sodipodi-0.dtd"
   xmlns:xlink="http://www.w3.org/1999/xlink"
   xmlns="http://www.w3.org/2000/svg"
   xmlns:svg="http://www.w3.org/2000/svg"><sodipodi:namedview
   id="namedview6"
   pagecolor="#ffffff"
   bordercolor="#000000"
   borderopacity="0.25"
   inkscape:showpageshadow="2"
   inkscape:pageopacity="0.0"
   inkscape:pagecheckerboard="0"
   inkscape:deskcolor="#d1d1d1"
   inkscape:zoom="12.114583"
   inkscape:cx="31.490972"
   inkscape:cy="15.477214"
   inkscape:window-width="1730"
   inkscape:window-height="1370"
   inkscape:window-x="0"
   inkscape:window-y="0"
   inkscape:window-maximized="0"
   inkscape:current-layer="svg6" />
    <defs
   id="defs5">
        <linearGradient
   id="i"
   x1=".05"
   x2="1"
   y2="1"
   gradientTransform="matrix(22 0 0 22 -56.75 -22.125)"
   gradientUnits="userSpaceOnUse">
            <stop
   offset="0.2"
   stop-color="#7e0000"
   style="stop-color:#c0352b;stop-opacity:1;"
   id="stop1" />
            <stop
   offset="0.205"
   stop-color="#ae0003"
   style="stop-color:#02679a;stop-opacity:1;"
   id="stop2" />
            <stop
   offset="1"
   stop-color="#7e0002"
   style="stop-color:#8bc5fc;stop-opacity:1;"
   id="stop3" />
        </linearGradient>
        <linearGradient
   id="j"
   x1="123.3"
   x2="8.261"
   y1="120.17"
   y2="13.466"
   gradientTransform="translate(53.824 2.949)scale(.18333)"
   gradientUnits="userSpaceOnUse">
            <stop
   offset="0"
   stop-color="#0257a9"
   id="stop4" />
            <stop
   offset="1"
   stop-color="#4c92d6"
   id="stop5" />
        </linearGradient>
        <linearGradient
   xlink:href="#i"
   id="k"
   x1=".05"
   x2="1"
   y2="1"
   gradientTransform="matrix(22 0 0 22 0 -.003)"
   gradientUnits="userSpaceOnUse" />
    <radialGradient
   fx="0"
   fy="0"
   cx="0"
   cy="0"
   r="1"
   gradientUnits="userSpaceOnUse"
   gradientTransform="matrix(0,16.5,-16.5,0,8.999991,0.750011)"
   spreadMethod="pad"
   id="radialGradient16463-5"><stop
     style="stop-opacity:1;stop-color:#8fc8ff"
     offset="0"
     id="stop16459-9" /><stop
     style="stop-opacity:1;stop-color:#006699"
     offset="1"
     id="stop16461-4" /></radialGradient><clipPath
   clipPathUnits="userSpaceOnUse"
   id="clipPath16473-9"><path
     d="M 0,0 H 151 V 116 H 0 Z"
     id="path16471-0" /></clipPath><clipPath
   clipPathUnits="userSpaceOnUse"
   id="clipPath16473-9-3"><path
     d="M 0,0 H 151 V 116 H 0 Z"
     id="path16471-0-6" /></clipPath></defs>
    <rect
   width="22"
   height="22"
   x="1"
   y=".997"
   fill="url(#j)"
   stroke="gray"
   stroke-opacity=".2"
   opacity=".9"
   rx="6.6"
   style="fill:url(#k);-inkscape-stroke:hairline"
   vector-effect="non-scaling-stroke"
   id="rect5" />
    <path
   d="M14.35 4.123q-.124 0-.262.023c-1.482.248-1.42 1.973-1.42 1.973s0 .764.713 1.15c.593.342.934-.027.992-.085s1.264-1.567 1.07 1.298c0 0 .425-.462.452-1.562.026-1.1-.682-1.168-.682-1.168s-.313-.079-.934.592c-.523.565-.637.633-.66.64h-.002s-.176.124-.197-.187-.088-1.252.86-1.762c.946-.51 1.408.738 1.408.738s-.104-1.648-1.338-1.65m-2.674.715a.503.671 77.92 0 0-.174.02.503.671 77.92 0 0-.55.632.503.671 77.92 0 0 .76.352.503.671 77.92 0 0 .552-.633.503.671 77.92 0 0-.588-.371m-3.123.213s-.425.46-.451 1.56.68 1.166.68 1.166.312.077.933-.593c.504-.545.63-.628.658-.64h.006s.175-.122.195.188.088 1.255-.86 1.762c-.947.507-1.407-.738-1.407-.738s.12 1.874 1.601 1.627c1.482-.247 1.42-1.973 1.42-1.973s.002-.761-.713-1.148c-.593-.342-.935.027-.994.086S8.36 7.915 8.553 5.05m3.27.916a.514.514 0 0 0-.473.553.5.5 0 0 0 .023.119s.298 1.188 1.906 1.226c0 0-.927-.663-.906-1.426a.514.514 0 0 0-.55-.472"
   style="fill:#fff;"
   id="path5" />
    <path
   d="m 14.767796,16.336959 c 0,1.564134 -1.270558,2.834691 -2.834691,2.834691 -1.564134,0 -2.8346931,-1.270557 -2.8346931,-2.834691 0,-1.564134 1.2705591,-2.834692 2.8346931,-2.834692 1.564133,0 2.834691,1.270558 2.834691,2.834692 z"
   style="fill:#cc5e55;fill-opacity:1;fill-rule:nonzero;stroke:none;stroke-width:0.962542"
   id="path16483-1" /><g
   id="g6"
   transform="matrix(0.72190799,0,0,0.72190799,3.0158592,3.2778665)"><path
     d="m 12.273662,15.704358 c 0.12,0 0.218667,0.09867 0.218667,0.218667 v 2.041333 c 0,0.12 -0.09867,0.218667 -0.218667,0.218667 -0.118667,0 -0.218667,-0.09867 -0.218667,-0.218667 v -2.041333 c 0,-0.12 0.1,-0.218667 0.218667,-0.218667 z"
     style="fill:#ffffff;fill-opacity:1;fill-rule:nonzero;stroke:none;stroke-width:1.33333"
     id="path16485-2" /><path
     d="m 12.154995,17.944358 c 0.08267,-0.08933 0.224,-0.08933 0.306667,0 l 1.442667,1.442667 c 0.088,0.08267 0.088,0.224 0,0.306667 -0.08267,0.08933 -0.224,0.08933 -0.306667,0 l -1.442667,-1.442667 c -0.084,-0.08267 -0.084,-0.224 0,-0.306667 z"
     style="fill:#ffffff;fill-opacity:1;fill-rule:nonzero;stroke:none;stroke-width:1.33333"
     id="path16487-7" /><path
     d="m 6.1336616,13.120358 c -1.032,1.286667 -1.666666,2.901334 -1.74,4.630667 -0.01467,0.401333 0.292,0.74 0.693334,0.754667 0.401333,0.016 0.734666,-0.290667 0.754666,-0.692 0.12,-2.838667 2.062667,-5.265333 4.8080004,-6.005333 2.749333,-0.734667 5.645333,0.396 7.172,2.791999 0.213333,0.338667 0.661333,0.437334 1,0.224 0.337333,-0.213333 0.437333,-0.661333 0.224,-0.994666 -1.865333,-2.933333 -5.417333,-4.3186672 -8.772,-3.417333 -1.6706674,0.453333 -3.1093334,1.417333 -4.1400004,2.707999 z"
     style="fill:#fafafa;fill-opacity:1;fill-rule:nonzero;stroke:none;stroke-width:1.33333"
     id="path16489-0" /><path
     d="m 5.1336616,19.324358 c -0.188,0 -0.369333,-0.07333 -0.510666,-0.213333 -0.286667,-0.281333 -0.286667,-0.74 0,-1.021333 l 2.317333,-2.322667 c 0.286666,-0.281333 0.74,-0.281333 1.026666,0 0.281334,0.286667 0.281334,0.738667 0,1.02 l -2.322666,2.324 c -0.141333,0.14 -0.328,0.213333 -0.510667,0.213333 z"
     style="fill:#fafafa;fill-opacity:1;fill-rule:nonzero;stroke:none;stroke-width:1.33333"
     id="path16491-9" /><path
     d="m 5.8576616,18.600358 c 0,0.182667 -0.07333,0.369334 -0.213333,0.510667 -0.281333,0.285333 -0.74,0.285333 -1.021333,0 l -2.322667,-2.318667 c -0.281333,-0.286666 -0.281333,-0.744 0,-1.025333 0.281333,-0.281333 0.74,-0.281333 1.021333,0 l 2.322667,2.322667 c 0.14,0.14 0.213333,0.322666 0.213333,0.510666 z"
     style="fill:#fafafa;fill-opacity:1;fill-rule:nonzero;stroke:none;stroke-width:1.33333"
     id="path16493-3" /><path
     d="m 19.748329,15.209692 c -0.604,-1.536 -1.682667,-2.890667 -3.141334,-3.822667 -0.337333,-0.214666 -0.785333,-0.114666 -1,0.224 -0.213333,0.338667 -0.114666,0.785334 0.224,1 2.396,1.525333 3.526667,4.421333 2.792,7.166667 -0.734666,2.749333 -3.161333,4.692 -6.005333,4.817333 -0.401333,0.016 -0.708,0.354667 -0.692,0.749333 0.01467,0.401334 0.353333,0.709334 0.754667,0.693334 3.469333,-0.150667 6.442666,-2.536 7.344,-5.885334 h -0.0053 c 0.448,-1.677333 0.328,-3.401333 -0.270666,-4.942666 z"
     style="fill:#fafafa;fill-opacity:1;fill-rule:nonzero;stroke:none;stroke-width:1.33333"
     id="path16495-6" /></g>
</svg>
